<?xml version="1.0" encoding="UTF-8"?>
<svg id="Layer_1" xmlns="http://www.w3.org/2000/svg" version="1.1" viewBox="4.5 131.8 832.9 332.3">
  <!-- Generator: Adobe Illustrator 30.4.0, SVG Export Plug-In . SVG Version: 2.1.4 Build 226)  -->
  <defs>
    <style>
      .st0 {
        fill: #fff;
      }

      .st1 {
        fill: #e41e26;
      }
    </style>
  </defs>
  <g>
    <path class="st0" d="M340.05,329.46c-5.44-2.32-9.75-5.67-12.91-10.05-3.16-4.37-4.79-9.53-4.88-15.49h20.93c.28,4,1.7,7.17,4.26,9.49,2.56,2.33,6.07,3.49,10.53,3.49s8.14-1.09,10.74-3.28c2.6-2.18,3.91-5.04,3.91-8.58,0-2.88-.88-5.25-2.65-7.12-1.77-1.86-3.98-3.32-6.63-4.39-2.65-1.07-6.3-2.25-10.95-3.56-6.33-1.86-11.47-3.7-15.42-5.51-3.96-1.81-7.35-4.56-10.19-8.23-2.84-3.67-4.26-8.58-4.26-14.72,0-5.77,1.44-10.79,4.33-15.07,2.88-4.28,6.93-7.56,12.14-9.84,5.21-2.28,11.16-3.42,17.86-3.42,10.05,0,18.21,2.44,24.49,7.33,6.28,4.88,9.74,11.7,10.39,20.44h-21.49c-.19-3.35-1.61-6.12-4.26-8.3s-6.16-3.28-10.53-3.28c-3.82,0-6.86.98-9.14,2.93-2.28,1.95-3.42,4.79-3.42,8.51,0,2.61.86,4.77,2.58,6.49,1.72,1.72,3.86,3.12,6.42,4.19,2.56,1.07,6.16,2.3,10.81,3.7,6.32,1.86,11.49,3.72,15.49,5.58,4,1.86,7.44,4.65,10.33,8.37,2.88,3.72,4.33,8.6,4.33,14.65,0,5.21-1.35,10.05-4.05,14.51-2.7,4.46-6.65,8.02-11.86,10.67-5.21,2.65-11.4,3.98-18.56,3.98-6.79,0-12.91-1.16-18.35-3.49Z"/>
    <path class="st0" d="M426.91,270.72v37.4c0,2.61.63,4.49,1.88,5.65,1.26,1.16,3.37,1.74,6.35,1.74h9.07v16.47h-12.28c-16.47,0-24.7-8-24.7-24v-37.26h-9.21v-16.05h9.21v-19.12h19.67v19.12h17.3v16.05h-17.3Z"/>
    <path class="st0" d="M452.38,272.26c3.12-6.05,7.35-10.7,12.7-13.95,5.35-3.25,11.32-4.88,17.93-4.88,5.77,0,10.81,1.16,15.14,3.49,4.33,2.33,7.79,5.26,10.4,8.79v-11.02h19.67v77.3h-19.67v-11.3c-2.51,3.63-5.98,6.63-10.4,9-4.42,2.37-9.51,3.56-15.28,3.56-6.51,0-12.44-1.67-17.79-5.02-5.35-3.35-9.58-8.07-12.7-14.16-3.12-6.09-4.67-13.09-4.67-21s1.56-14.74,4.67-20.79ZM505.75,281.12c-1.86-3.4-4.37-6-7.53-7.81-3.16-1.81-6.56-2.72-10.19-2.72s-6.98.89-10.05,2.65c-3.07,1.77-5.56,4.35-7.47,7.74-1.91,3.4-2.86,7.42-2.86,12.07s.95,8.72,2.86,12.21c1.91,3.49,4.42,6.16,7.54,8.02,3.11,1.86,6.44,2.79,9.98,2.79s7.02-.91,10.19-2.72c3.16-1.81,5.67-4.42,7.53-7.81,1.86-3.39,2.79-7.47,2.79-12.21s-.93-8.81-2.79-12.21Z"/>
    <path class="st0" d="M571.12,257.04c4.05-2.32,8.67-3.49,13.88-3.49v20.51h-5.16c-6.14,0-10.77,1.44-13.88,4.33-3.12,2.88-4.67,7.91-4.67,15.07v38.51h-19.54v-77.3h19.54v12c2.51-4.09,5.79-7.3,9.84-9.63Z"/>
    <path class="st0" d="M615.29,270.72v37.4c0,2.61.63,4.49,1.88,5.65,1.26,1.16,3.37,1.74,6.35,1.74h9.07v16.47h-12.28c-16.47,0-24.7-8-24.7-24v-37.26h-9.21v-16.05h9.21v-19.12h19.67v19.12h17.3v16.05h-17.3Z"/>
    <path class="st0" d="M714.08,254.67v77.3h-19.67v-9.77c-2.51,3.35-5.79,5.98-9.84,7.88-4.05,1.91-8.44,2.86-13.19,2.86-6.05,0-11.4-1.28-16.05-3.84-4.65-2.56-8.3-6.32-10.95-11.3-2.65-4.98-3.98-10.9-3.98-17.79v-45.35h19.53v42.56c0,6.14,1.54,10.86,4.61,14.16,3.07,3.3,7.26,4.95,12.56,4.95s9.63-1.65,12.7-4.95c3.07-3.3,4.61-8.02,4.61-14.16v-42.56h19.67Z"/>
    <path class="st0" d="M757.68,256.98c4.42-2.37,9.47-3.56,15.14-3.56,6.6,0,12.58,1.63,17.93,4.88,5.35,3.26,9.58,7.88,12.7,13.88,3.11,6,4.67,12.96,4.67,20.86s-1.56,14.91-4.67,21c-3.12,6.09-7.35,10.81-12.7,14.16-5.35,3.35-11.33,5.02-17.93,5.02-5.68,0-10.68-1.16-15-3.49-4.32-2.32-7.84-5.25-10.53-8.79v47.86h-19.54v-114.14h19.54v11.16c2.51-3.54,5.98-6.49,10.39-8.86ZM785.31,280.98c-1.91-3.4-4.42-5.98-7.53-7.74-3.12-1.77-6.49-2.65-10.12-2.65s-6.86.91-9.98,2.72c-3.12,1.81-5.63,4.44-7.53,7.88-1.91,3.44-2.86,7.49-2.86,12.14s.95,8.7,2.86,12.14c1.91,3.44,4.42,6.07,7.53,7.88,3.12,1.82,6.44,2.72,9.98,2.72s7-.93,10.12-2.79c3.12-1.86,5.63-4.51,7.53-7.95,1.91-3.44,2.86-7.54,2.86-12.28s-.95-8.67-2.86-12.07Z"/>
    <path class="st0" d="M405.57,346.83v97.4h-19.54v-41.44h-41.72v41.44h-19.54v-97.4h19.54v40.05h41.72v-40.05h19.54Z"/>
    <path class="st0" d="M492.22,366.92v77.3h-19.67v-9.77c-2.51,3.35-5.79,5.98-9.84,7.88-4.05,1.91-8.44,2.86-13.19,2.86-6.05,0-11.4-1.28-16.05-3.84-4.65-2.56-8.3-6.32-10.95-11.3-2.65-4.98-3.98-10.9-3.98-17.79v-45.35h19.53v42.56c0,6.14,1.54,10.86,4.61,14.16,3.07,3.3,7.26,4.95,12.56,4.95s9.63-1.65,12.7-4.95c3.07-3.3,4.61-8.02,4.61-14.16v-42.56h19.67Z"/>
    <path class="st0" d="M535.82,369.16c4.42-2.32,9.47-3.49,15.14-3.49,6.6,0,12.58,1.63,17.93,4.88,5.35,3.26,9.58,7.88,12.7,13.88,3.11,6,4.67,12.96,4.67,20.86s-1.56,14.91-4.67,21c-3.12,6.09-7.35,10.81-12.7,14.16-5.35,3.35-11.33,5.02-17.93,5.02-5.77,0-10.82-1.14-15.14-3.42-4.32-2.28-7.79-5.23-10.39-8.86v11.02h-19.54v-103.26h19.54v37.26c2.51-3.72,5.98-6.74,10.39-9.07ZM563.45,393.23c-1.91-3.4-4.42-5.98-7.53-7.74-3.12-1.77-6.49-2.65-10.12-2.65s-6.86.91-9.98,2.72c-3.12,1.81-5.63,4.44-7.53,7.88-1.91,3.44-2.86,7.49-2.86,12.14s.95,8.7,2.86,12.14c1.91,3.44,4.42,6.07,7.53,7.88,3.12,1.82,6.44,2.72,9.98,2.72s7-.93,10.12-2.79c3.12-1.86,5.63-4.51,7.53-7.95,1.91-3.44,2.86-7.54,2.86-12.28s-.95-8.67-2.86-12.07Z"/>
  </g>
  <path class="st1" d="M99.08,442.11c8.99-53.71,31.41-101.2,63.67-144.74-3.3-2.45-6.44-4.77-9.89-7.33-41.07,49.39-80.16,100-117.57,151.92-.38-.18-.77-.36-1.15-.53-.08-1.07-.24-2.14-.24-3.22-.01-80.59-.03-161.17,0-241.76,0-22.65,15.85-41.42,38.21-45.36,1.93-.34,3.93-.39,5.9-.39,37.85-.02,75.7-.23,113.55.08,25.29.2,47.47,8.89,65.36,27.06,14.05,14.27,22.11,31.8,25.61,51.39,5.76,32.29-.08,62.36-18.82,89.37-18.61,26.81-44.92,39.91-77.32,41.09-6.75.25-13.52-.02-20.27.14-10.58.25-15.32,5.14-15.38,15.73-.09,16.74-.09,33.48-.17,50.22-.05,10.47-5.99,16.48-16.43,16.54-10.61.06-21.21.04-31.82.04-.91,0-1.82-.14-3.24-.25ZM184.22,309.6c.33.19.67.38,1,.57,2.28-2.03,4.61-4,6.83-6.09,9.75-9.15,14.88-20.04,12.9-33.74-.21-1.46.68-3.33,1.59-4.64,3.49-5.03,7.58-9.66,10.74-14.87,10.18-16.75,16.58-34.61,14.56-54.67-.36-3.56-.8-4-4.22-3.48-8.71,1.34-16.91,4.13-24.58,8.51-15.25,8.7-26.33,21.37-34.82,36.5-.98,1.74-1.97,2.68-4.17,3.01-7.64,1.15-15.16,2.92-20.73,8.95-5.06,5.48-8.72,11.85-11.5,18.74-.24.6-.29,1.27-.55,2.44,2.31-.84,4.14-1.5,5.95-2.17,5.23-1.93,10.58-2.92,16.19-2.42,2.49.22,3.84,1.02,3.19,3.88-.53,2.32-.62,4.73-.99,7.09-.29,1.82.16,3.12,1.78,4.22,3.7,2.5,7.21,5.28,10.95,7.72.91.59,2.55.68,3.62.31,3.09-1.05,6.07-2.46,9.26-3.79,3.9,7.81,4.69,15.69,2.99,23.92Z"/>
  <g>
    <path class="st1" d="M398.69,205.35c-1.34.67-2.54,1.34-3.88,2.01-6.43,2.54-13.65-.67-16.2-7.23-.4-1.07-.67-2.14-.8-3.35-1.07-7.9,1.87-15.66,8.03-20.75,3.88-3.48,9.51-4.42,14.33-2.41,1.07.54,2.14,1.07,3.08,1.88,0,0,.13,0,.13-.13q.67-2.14,2.94-2.14h7.36c-1.74,9.1-3.88,17.8-5.35,26.64l.4.27c.67-.27,1.47-.53,2.14-.8,4.15-2.54,7.09-6.69,7.9-11.51,1.47-6.82-1.47-13.92-7.5-17.53-2.68-1.61-5.62-2.54-8.7-2.81-5.62-.8-11.25,0-16.33,2.28-6.29,3.08-9.91,8.3-11.78,14.86-1.47,4.82-1.47,10.04,0,14.86,1.87,6.43,6.96,11.38,13.25,13.12,7.09,2.14,14.59,2.27,21.68.4,3.88-.94,7.36-2.95,10.04-5.89.4-.4.94-.67,1.61-.67,2.41-.13,4.82,0,7.5,0-.67,1.2-1.21,2.27-1.88,3.21-3.48,4.95-8.43,8.57-14.32,10.17-8.57,2.54-17.8,2.54-26.5,0-10.84-3.21-17.8-10.44-19.54-23.29-1.34-8.57.94-17.4,6.02-24.36,4.68-6.43,11.38-10.04,19.14-11.51,5.36-.94,10.84-.8,16.06.4,12.05,2.81,19.94,14.19,18.34,26.51-.8,8.03-5.49,14.99-12.72,18.6-2.94,1.47-6.29,2.27-9.5,2.01-2.01,0-3.88-1.07-4.95-2.81M387.18,194.24c.13.67.13,1.61.4,2.68.4,2.54,2.95,4.28,5.49,3.88.54-.13,1.07-.27,1.47-.54,2.01-1.07,3.61-2.81,4.42-4.95,1.87-3.61,2.41-7.63,1.74-11.64-.53-2.54-2.95-4.28-5.62-3.75-.27,0-.54.13-.81.27-2.14.8-4.01,2.41-4.82,4.55-1.21,2.95-2.14,6.16-2.28,9.5"/>
    <path class="st0" d="M522.78,216.59h-11.65v-24.9h-23.43v24.9h-11.51v-49.66c0-4.02,2.41-6.43,6.42-6.43h5.22v20.88h23.29v-20.88h11.65v56.09Z"/>
    <path class="st0" d="M428.81,199.19h10.71c.27.13.54.27.67.67.81,4.82,3.75,7.36,9.1,8.3,2.94.54,6.02.4,8.97-.4,2.68-.54,4.82-2.81,4.95-5.62.13-1.61-.54-3.21-1.87-4.15-2.41-1.87-5.22-3.08-8.17-3.75-4.28-1.21-8.57-2.27-12.85-3.48-1.47-.4-2.81-.94-4.15-1.74-5.76-3.21-7.1-8.7-6.7-14.72.54-8.03,5.89-12.98,14.19-14.72,3.48-.67,6.96-.8,10.44-.53,6.83.67,12.85,2.81,16.33,9.37,1.34,2.54,2.01,5.35,2.14,8.17-.13.13-.27.13-.4.13h-6.69c-1.88,0-3.61-.94-4.42-2.68-2.01-4.15-5.62-5.49-9.77-5.62-1.88,0-3.88.13-5.76.67-2.54.54-4.42,2.68-4.68,5.36-.4,1.87.54,3.75,2.14,4.55,1.88,1.07,3.88,1.88,6.02,2.54,4.55,1.34,9.23,2.41,13.65,3.75,2.54.67,4.82,1.74,6.96,3.35,2.94,2.54,4.82,6.16,4.95,10.04.27,5.49-1.07,10.44-5.22,14.33-2.54,2.27-5.75,3.75-9.1,4.28-6.56,1.47-13.39,1.2-19.68-.94-7.5-2.81-11.78-9.1-11.78-17.13"/>
    <path class="st0" d="M577.66,216.59h-11.64c-.27,0-.67-.4-.81-.8-1.07-3.21-2.14-6.56-3.21-9.77-.13-.67-.67-1.07-1.34-1.07h-19.81c-.67-.13-1.2.27-1.34.94v.13c-1.07,3.48-2.14,7.09-3.21,10.57h-12.18c.4-1.34.94-2.68,1.34-3.88,5.62-15.93,11.25-31.86,17-47.79,1.2-3.35,2.81-4.42,6.42-4.42h7.23c.8-.13,1.61.4,1.74,1.2,4.42,12.18,8.83,24.23,13.25,36.41,2.14,5.89,4.28,11.65,6.43,17.54-.13.27-.13.67.13.94M558.52,195.58c-2.54-7.9-5.22-15.8-7.77-23.69h-.27l-7.63,23.69h15.66Z"/>
    <path class="st0" d="M334.44,196.52v20.08h-11.65v-1.2c0-16.06.13-32.26,0-48.32-.27-3.35,2.27-6.29,5.76-6.56h.67c7.09.13,14.32,0,21.42.27,8.7.4,14.46,6.16,14.99,14.86.27,3.08.13,6.29-.67,9.37-1.88,7.23-6.83,11.25-14.33,11.51-4.82.13-9.77.13-14.72.13l-1.47-.13ZM334.44,186.48h10.44c1.34,0,2.67-.13,4.01-.27,2.54-.27,4.55-2.01,5.22-4.55.54-2.01.54-4.02.13-6.16-.4-2.68-2.54-4.69-5.09-5.09-.94-.13-1.74-.27-2.68-.27h-11.91l-.13,16.33Z"/>
  </g>
  <path class="st1" d="M626.11,441.72c-10.14-.02-17.98-7.88-18.01-18.05-.03-10.11,8.13-18.34,18.13-18.29,10.07.05,18.01,8.16,18.03,18.41.02,10.07-7.95,17.94-18.14,17.93Z"/>
</svg>