<?xml version="1.0" encoding="UTF-8"?>
<svg id="Layer_1" xmlns="http://www.w3.org/2000/svg" version="1.1" viewBox="4.5 131.8 832.9 332.3">
  <!-- Generator: Adobe Illustrator 30.4.0, SVG Export Plug-In . SVG Version: 2.1.4 Build 226)  -->
  <defs>
    <style>
      .st0 {
        fill: #3e3932;
      }

      .st1 {
        fill: #3d3932;
      }

      .st2 {
        fill: #e41e26;
      }
    </style>
  </defs>
  <g>
    <path class="st1" d="M336.43,330.87c-5.69-2.43-10.18-5.93-13.49-10.5-3.3-4.57-5.01-9.96-5.1-16.18h21.87c.29,4.18,1.77,7.49,4.45,9.91,2.67,2.43,6.34,3.64,11.01,3.64s8.5-1.14,11.23-3.43c2.72-2.28,4.08-5.27,4.08-8.97,0-3.01-.92-5.49-2.77-7.44-1.85-1.94-4.16-3.47-6.93-4.59-2.77-1.12-6.59-2.36-11.44-3.72-6.61-1.94-11.98-3.86-16.11-5.76-4.13-1.9-7.68-4.76-10.64-8.6-2.97-3.84-4.45-8.97-4.45-15.38,0-6.03,1.51-11.27,4.52-15.75,3.01-4.47,7.24-7.89,12.68-10.28,5.44-2.38,11.66-3.57,18.66-3.57,10.5,0,19.03,2.55,25.59,7.65,6.56,5.1,10.18,12.22,10.86,21.36h-22.45c-.2-3.5-1.68-6.39-4.45-8.67s-6.44-3.43-11.01-3.43c-3.99,0-7.17,1.02-9.55,3.06-2.38,2.04-3.57,5.01-3.57,8.89,0,2.72.9,4.98,2.7,6.78,1.8,1.8,4.03,3.26,6.71,4.37,2.67,1.12,6.44,2.4,11.3,3.86,6.61,1.95,12,3.89,16.18,5.83,4.18,1.94,7.77,4.86,10.79,8.75,3.01,3.89,4.52,8.99,4.52,15.31,0,5.44-1.41,10.5-4.23,15.16-2.82,4.66-6.95,8.38-12.39,11.15-5.44,2.77-11.91,4.16-19.39,4.16-7.09,0-13.48-1.21-19.17-3.65Z"/>
    <path class="st1" d="M427.18,269.49v39.07c0,2.72.66,4.69,1.97,5.9,1.31,1.22,3.52,1.82,6.63,1.82h9.48v17.2h-12.83c-17.2,0-25.8-8.36-25.8-25.07v-38.93h-9.62v-16.77h9.62v-19.97h20.56v19.97h18.08v16.77h-18.08Z"/>
    <path class="st1" d="M453.78,271.1c3.26-6.32,7.68-11.18,13.27-14.58,5.59-3.4,11.83-5.1,18.73-5.1,6.02,0,11.3,1.22,15.82,3.64,4.52,2.43,8.14,5.49,10.86,9.19v-11.52h20.56v80.77h-20.56v-11.81c-2.62,3.79-6.25,6.93-10.86,9.4-4.62,2.48-9.94,3.72-15.96,3.72-6.8,0-13-1.75-18.59-5.25-5.59-3.5-10.01-8.43-13.27-14.8-3.26-6.36-4.88-13.68-4.88-21.94s1.63-15.4,4.88-21.72ZM509.55,280.36c-1.95-3.55-4.57-6.27-7.87-8.16-3.31-1.9-6.85-2.84-10.64-2.84s-7.29.93-10.5,2.77c-3.21,1.85-5.81,4.54-7.8,8.09-1.99,3.55-2.99,7.75-2.99,12.61s1,9.11,2.99,12.76c1.99,3.65,4.62,6.44,7.87,8.38,3.25,1.95,6.73,2.92,10.42,2.92s7.34-.95,10.64-2.84c3.3-1.9,5.93-4.61,7.87-8.16,1.94-3.55,2.92-7.8,2.92-12.76s-.97-9.21-2.92-12.76Z"/>
    <path class="st1" d="M577.85,255.21c4.23-2.43,9.06-3.64,14.51-3.64v21.43h-5.39c-6.41,0-11.25,1.51-14.51,4.52-3.26,3.01-4.88,8.26-4.88,15.75v40.24h-20.41v-80.77h20.41v12.54c2.62-4.28,6.05-7.63,10.28-10.06Z"/>
    <path class="st1" d="M623.99,269.49v39.07c0,2.72.66,4.69,1.97,5.9,1.31,1.22,3.52,1.82,6.63,1.82h9.48v17.2h-12.83c-17.2,0-25.8-8.36-25.8-25.07v-38.93h-9.62v-16.77h9.62v-19.97h20.56v19.97h18.08v16.77h-18.08Z"/>
    <path class="st1" d="M727.21,252.73v80.77h-20.56v-10.2c-2.62,3.5-6.05,6.25-10.28,8.24-4.23,1.99-8.82,2.99-13.78,2.99-6.32,0-11.91-1.34-16.77-4.01-4.86-2.67-8.68-6.61-11.45-11.81-2.77-5.2-4.15-11.39-4.15-18.59v-47.38h20.41v44.47c0,6.41,1.6,11.35,4.81,14.8,3.21,3.45,7.58,5.18,13.12,5.18s10.06-1.72,13.27-5.18c3.21-3.45,4.81-8.38,4.81-14.8v-44.47h20.56Z"/>
    <path class="st1" d="M772.76,255.14c4.62-2.48,9.89-3.72,15.82-3.72,6.9,0,13.14,1.7,18.73,5.1,5.59,3.4,10.01,8.24,13.27,14.51,3.25,6.27,4.88,13.54,4.88,21.8s-1.63,15.58-4.88,21.94c-3.26,6.37-7.68,11.3-13.27,14.8-5.59,3.5-11.83,5.25-18.73,5.25-5.93,0-11.15-1.22-15.67-3.64-4.52-2.43-8.19-5.49-11.01-9.19v50.01h-20.41v-119.26h20.41v11.66c2.62-3.69,6.24-6.78,10.86-9.26ZM801.63,280.21c-1.99-3.55-4.62-6.24-7.87-8.09-3.26-1.84-6.78-2.77-10.57-2.77s-7.17.95-10.42,2.84c-3.26,1.9-5.88,4.64-7.87,8.24-1.99,3.6-2.99,7.83-2.99,12.68s1,9.09,2.99,12.68c1.99,3.6,4.61,6.34,7.87,8.24,3.26,1.9,6.73,2.84,10.42,2.84s7.31-.97,10.57-2.92c3.26-1.94,5.88-4.71,7.87-8.31,1.99-3.6,2.99-7.87,2.99-12.83s-1-9.06-2.99-12.61Z"/>
    <path class="st1" d="M404.87,349.02v101.76h-20.41v-43.3h-43.59v43.3h-20.41v-101.76h20.41v41.84h43.59v-41.84h20.41Z"/>
    <path class="st1" d="M495.41,370.01v80.77h-20.56v-10.2c-2.62,3.5-6.05,6.25-10.28,8.24-4.23,1.99-8.82,2.99-13.78,2.99-6.32,0-11.91-1.34-16.77-4.01-4.86-2.67-8.68-6.61-11.45-11.81-2.77-5.2-4.15-11.39-4.15-18.59v-47.38h20.41v44.47c0,6.41,1.6,11.35,4.81,14.8,3.21,3.45,7.58,5.18,13.12,5.18s10.06-1.72,13.27-5.18c3.21-3.45,4.81-8.38,4.81-14.8v-44.47h20.56Z"/>
    <path class="st1" d="M540.97,372.34c4.62-2.43,9.89-3.64,15.82-3.64,6.9,0,13.14,1.7,18.73,5.1,5.59,3.4,10.01,8.24,13.27,14.51,3.25,6.27,4.88,13.54,4.88,21.8s-1.63,15.58-4.88,21.94c-3.26,6.37-7.68,11.3-13.27,14.8-5.59,3.5-11.83,5.25-18.73,5.25-6.03,0-11.3-1.19-15.82-3.57-4.52-2.38-8.14-5.47-10.86-9.26v11.52h-20.41v-107.88h20.41v38.93c2.62-3.89,6.24-7.05,10.86-9.48ZM569.83,397.49c-1.99-3.55-4.62-6.24-7.87-8.09-3.26-1.84-6.78-2.77-10.57-2.77s-7.17.95-10.42,2.84c-3.26,1.9-5.88,4.64-7.87,8.24-1.99,3.6-2.99,7.83-2.99,12.68s1,9.09,2.99,12.68c1.99,3.6,4.61,6.34,7.87,8.24,3.26,1.9,6.73,2.84,10.42,2.84s7.31-.97,10.57-2.92c3.26-1.94,5.88-4.71,7.87-8.31,1.99-3.6,2.99-7.87,2.99-12.83s-1-9.06-2.99-12.61Z"/>
  </g>
  <path class="st2" d="M84.66,448.56c9.4-56.12,32.82-105.73,66.52-151.23-3.45-2.56-6.72-4.98-10.33-7.65-42.91,51.61-83.75,104.48-122.83,158.72-.4-.19-.8-.37-1.2-.56-.09-1.12-.25-2.24-.25-3.36-.01-84.2-.03-168.39,0-252.59,0-23.66,16.56-43.27,39.92-47.4,2.02-.36,4.11-.41,6.17-.41,39.55-.02,79.09-.24,118.64.08,26.42.21,49.6,9.29,68.29,28.27,14.68,14.91,23.1,33.22,26.75,53.7,6.02,33.74-.08,65.15-19.67,93.38-19.44,28.01-46.93,41.7-80.78,42.93-7.05.26-14.12-.02-21.18.15-11.05.27-16.01,5.37-16.07,16.43-.09,17.49-.1,34.98-.17,52.47-.05,10.94-6.26,17.22-17.16,17.28-11.08.07-22.16.04-33.24.04-.95,0-1.9-.14-3.38-.26ZM173.61,310.11c.35.2.7.39,1.04.59,2.38-2.12,4.82-4.18,7.14-6.36,10.19-9.56,15.54-20.93,13.48-35.25-.22-1.52.71-3.48,1.66-4.85,3.64-5.25,7.92-10.1,11.22-15.54,10.63-17.51,17.32-36.16,15.22-57.12-.37-3.72-.84-4.18-4.41-3.63-9.1,1.4-17.67,4.32-25.68,8.89-15.93,9.09-27.51,22.33-36.38,38.13-1.02,1.82-2.05,2.8-4.36,3.15-7.99,1.21-15.84,3.05-21.66,9.35-5.29,5.73-9.11,12.39-12.02,19.58-.25.62-.31,1.33-.58,2.55,2.42-.88,4.32-1.57,6.22-2.27,5.46-2.01,11.06-3.06,16.91-2.53,2.6.23,4.01,1.06,3.33,4.05-.55,2.42-.64,4.95-1.03,7.41-.3,1.9.17,3.26,1.86,4.41,3.86,2.61,7.53,5.52,11.44,8.06.95.62,2.67.71,3.79.33,3.23-1.1,6.34-2.57,9.68-3.96,4.08,8.16,4.9,16.39,3.13,25Z"/>
  <g>
    <path class="st2" d="M397.69,201.2c-1.4.7-2.66,1.4-4.06,2.1-6.71,2.66-14.27-.7-16.92-7.55-.42-1.12-.7-2.24-.84-3.49-1.12-8.25,1.96-16.36,8.39-21.68,4.06-3.64,9.93-4.61,14.97-2.52,1.12.56,2.24,1.12,3.22,1.96,0,0,.14,0,.14-.14q.7-2.24,3.08-2.24h7.69c-1.82,9.51-4.06,18.6-5.59,27.83l.42.28c.7-.28,1.54-.56,2.24-.84,4.33-2.66,7.41-6.99,8.25-12.03,1.54-7.13-1.54-14.55-7.83-18.32-2.8-1.68-5.87-2.66-9.09-2.94-5.87-.84-11.75,0-17.06,2.38-6.57,3.22-10.35,8.67-12.3,15.52-1.54,5.04-1.54,10.49,0,15.53,1.95,6.71,7.27,11.89,13.84,13.71,7.41,2.24,15.24,2.38,22.66.42,4.06-.98,7.69-3.08,10.49-6.15.42-.42.98-.7,1.68-.7,2.52-.14,5.04,0,7.83,0-.7,1.26-1.26,2.37-1.96,3.35-3.64,5.18-8.81,8.95-14.96,10.63-8.95,2.66-18.6,2.66-27.69,0-11.33-3.35-18.6-10.91-20.42-24.33-1.4-8.95.98-18.18,6.29-25.45,4.89-6.71,11.89-10.49,20-12.03,5.6-.98,11.33-.84,16.78.42,12.59,2.94,20.84,14.82,19.16,27.69-.84,8.39-5.73,15.66-13.29,19.44-3.08,1.54-6.57,2.38-9.93,2.1-2.1,0-4.06-1.12-5.18-2.94M385.66,189.59c.14.7.14,1.68.42,2.8.42,2.66,3.08,4.47,5.73,4.06.56-.14,1.12-.28,1.54-.56,2.1-1.12,3.77-2.94,4.62-5.18,1.96-3.77,2.52-7.97,1.82-12.17-.56-2.66-3.08-4.47-5.87-3.92-.28,0-.56.14-.84.28-2.24.84-4.19,2.52-5.03,4.75-1.26,3.08-2.24,6.43-2.38,9.93"/>
    <path class="st0" d="M527.34,212.94h-12.17v-26.01h-24.47v26.01h-12.03v-51.88c0-4.2,2.52-6.71,6.71-6.71h5.45v21.82h24.34v-21.82h12.17v58.6Z"/>
    <path class="st0" d="M429.16,194.76h11.19c.28.14.56.28.7.7.84,5.04,3.92,7.69,9.51,8.67,3.08.56,6.29.42,9.37-.42,2.8-.56,5.04-2.94,5.18-5.87.14-1.68-.56-3.36-1.96-4.34-2.52-1.96-5.45-3.22-8.53-3.91-4.47-1.26-8.95-2.38-13.42-3.64-1.54-.42-2.94-.98-4.33-1.82-6.02-3.36-7.41-9.09-7-15.38.56-8.39,6.16-13.57,14.82-15.38,3.64-.7,7.27-.84,10.91-.56,7.13.7,13.43,2.94,17.06,9.79,1.4,2.66,2.1,5.59,2.24,8.53-.14.14-.28.14-.42.14h-6.99c-1.96,0-3.78-.98-4.62-2.8-2.1-4.34-5.87-5.74-10.21-5.87-1.96,0-4.06.14-6.02.7-2.66.56-4.62,2.8-4.89,5.6-.42,1.96.56,3.91,2.24,4.75,1.96,1.12,4.06,1.96,6.29,2.66,4.75,1.4,9.65,2.52,14.26,3.91,2.66.7,5.04,1.82,7.27,3.5,3.08,2.66,5.04,6.43,5.17,10.49.28,5.73-1.12,10.91-5.45,14.97-2.66,2.38-6.01,3.91-9.51,4.47-6.85,1.54-13.99,1.26-20.56-.98-7.83-2.94-12.31-9.51-12.31-17.9"/>
    <path class="st0" d="M584.68,212.94h-12.17c-.28,0-.7-.42-.84-.84-1.12-3.36-2.24-6.85-3.35-10.21-.14-.7-.7-1.12-1.4-1.12h-20.7c-.7-.14-1.26.28-1.4.98v.14c-1.12,3.64-2.24,7.41-3.35,11.05h-12.73c.42-1.4.98-2.8,1.4-4.06,5.87-16.64,11.75-33.29,17.76-49.93,1.26-3.49,2.94-4.61,6.71-4.61h7.56c.84-.14,1.68.42,1.82,1.26,4.61,12.73,9.23,25.31,13.84,38.04,2.24,6.15,4.47,12.17,6.71,18.32-.14.28-.14.7.14.98M564.68,190.99c-2.66-8.25-5.45-16.5-8.11-24.75h-.28l-7.97,24.75h16.36Z"/>
    <path class="st0" d="M330.56,191.97v20.98h-12.17v-1.26c0-16.78.14-33.71,0-50.49-.28-3.5,2.38-6.57,6.02-6.85h.7c7.41.14,14.96,0,22.37.28,9.09.42,15.11,6.43,15.66,15.52.28,3.22.14,6.58-.7,9.79-1.96,7.56-7.13,11.75-14.97,12.03-5.03.14-10.21.14-15.38.14l-1.54-.14ZM330.56,181.48h10.91c1.4,0,2.79-.14,4.19-.28,2.66-.28,4.76-2.1,5.45-4.76.56-2.1.56-4.2.14-6.43-.42-2.8-2.66-4.9-5.31-5.32-.98-.14-1.82-.28-2.8-.28h-12.44l-.14,17.06Z"/>
  </g>
  <path class="st2" d="M635.3,448.16c-10.59-.02-18.79-8.23-18.82-18.86-.03-10.56,8.5-19.16,18.94-19.11,10.52.05,18.81,8.52,18.83,19.24.02,10.52-8.31,18.75-18.96,18.73Z"/>
</svg>